<svg width="32" height="32" viewBox="0 0 32 32" fill="none" xmlns="http://www.w3.org/2000/svg">
<path d="M16 1.66663C14.249 1.66663 12.5152 2.0115 10.8976 2.68157C9.27988 3.35163 7.81003 4.33375 6.57191 5.57187C4.07143 8.07235 2.66667 11.4637 2.66667 15C2.66667 20.8933 6.49334 25.8933 11.7867 27.6666C12.4533 27.7733 12.6667 27.36 12.6667 27V24.7466C8.97334 25.5466 8.18667 22.96 8.18667 22.96C7.57334 21.4133 6.70667 21 6.70667 21C5.49334 20.1733 6.8 20.2 6.8 20.2C8.13334 20.2933 8.84 21.5733 8.84 21.5733C10 23.6 11.96 23 12.72 22.68C12.84 21.8133 13.1867 21.2266 13.56 20.8933C10.6 20.56 7.49334 19.4133 7.49334 14.3333C7.49334 12.8533 8 11.6666 8.86667 10.72C8.73334 10.3866 8.26667 8.99996 9 7.19996C9 7.19996 10.12 6.83996 12.6667 8.55996C13.72 8.26663 14.8667 8.11996 16 8.11996C17.1333 8.11996 18.28 8.26663 19.3333 8.55996C21.88 6.83996 23 7.19996 23 7.19996C23.7333 8.99996 23.2667 10.3866 23.1333 10.72C24 11.6666 24.5067 12.8533 24.5067 14.3333C24.5067 19.4266 21.3867 20.5466 18.4133 20.88C18.8933 21.2933 19.3333 22.1066 19.3333 23.3466V27C19.3333 27.36 19.5467 27.7866 20.2267 27.6666C25.52 25.88 29.3333 20.8933 29.3333 15C29.3333 13.249 28.9885 11.5152 28.3184 9.89751C27.6483 8.27984 26.6662 6.80998 25.4281 5.57187C24.19 4.33375 22.7201 3.35163 21.1024 2.68157C19.4848 2.0115 17.751 1.66663 16 1.66663Z" fill="#CCCCCC"/>
</svg>
