<svg width="32" height="32" viewBox="0 0 32 32" fill="none" xmlns="http://www.w3.org/2000/svg">
<g clip-path="url(#clip0_1_38)">
<path d="M24.8889 3.55556H10.6667C10.1952 3.55556 9.74301 3.74286 9.40962 4.07626C9.07622 4.40965 8.88892 4.86184 8.88892 5.33334V11.5556H16.4445L13.44 8.63111C13.2944 8.46107 13.2183 8.24233 13.227 8.01862C13.2356 7.79491 13.3283 7.5827 13.4866 7.42439C13.6449 7.26608 13.8572 7.17334 14.0809 7.1647C14.3046 7.15606 14.5233 7.23216 14.6934 7.37778L19.84 12.5244L14.6934 17.6711C14.5233 17.8167 14.3046 17.8928 14.0809 17.8842C13.8572 17.8755 13.6449 17.7828 13.4866 17.6245C13.3283 17.4662 13.2356 17.254 13.227 17.0303C13.2183 16.8066 13.2944 16.5878 13.44 16.4178L16.4445 13.3333H8.88892V26.6667C8.88892 27.1382 9.07622 27.5903 9.40962 27.9237C9.74301 28.2571 10.1952 28.4444 10.6667 28.4444H24.8889C25.3604 28.4444 25.8126 28.2571 26.146 27.9237C26.4794 27.5903 26.6667 27.1382 26.6667 26.6667V5.33334C26.6667 4.86184 26.4794 4.40965 26.146 4.07626C25.8126 3.74286 25.3604 3.55556 24.8889 3.55556Z" fill="white"/>
<path d="M8.88891 11.5556H3.55558C3.31983 11.5556 3.09374 11.6492 2.92704 11.8159C2.76034 11.9826 2.66669 12.2087 2.66669 12.4444C2.66669 12.6802 2.76034 12.9063 2.92704 13.073C3.09374 13.2397 3.31983 13.3333 3.55558 13.3333H8.88891V11.5556Z" fill="white"/>
</g>
<defs>
<clipPath id="clip0_1_38">
<rect width="32" height="32" fill="white"/>
</clipPath>
</defs>
</svg>
