<svg width="32" height="32" viewBox="0 0 32 32" fill="none" xmlns="http://www.w3.org/2000/svg">
<path d="M16 0.666626C8.63999 0.666626 2.66666 6.63996 2.66666 14C2.66666 21.36 8.63999 27.3333 16 27.3333C23.36 27.3333 29.3333 21.36 29.3333 14C29.3333 6.63996 23.36 0.666626 16 0.666626ZM22.1867 9.73329C21.9867 11.84 21.12 16.96 20.68 19.32C20.4933 20.32 20.12 20.6533 19.7733 20.6933C19 20.76 18.4133 20.1866 17.6667 19.6933C16.4933 18.92 15.8267 18.44 14.6933 17.6933C13.3733 16.8266 14.2267 16.3466 14.9867 15.5733C15.1867 15.3733 18.6 12.2666 18.6667 11.9866C18.6759 11.9442 18.6747 11.9002 18.6631 11.8584C18.6514 11.8165 18.6298 11.7782 18.6 11.7466C18.52 11.68 18.4133 11.7066 18.32 11.72C18.2 11.7466 16.3333 12.9866 12.6933 15.44C12.16 15.8 11.68 15.9866 11.2533 15.9733C10.7733 15.96 9.86666 15.7066 9.18666 15.48C8.34666 15.2133 7.69332 15.0666 7.74666 14.6C7.77332 14.36 8.10666 14.12 8.73332 13.8666C12.6267 12.1733 15.2133 11.0533 16.5067 10.52C20.2133 8.97329 20.9733 8.70662 21.48 8.70662C21.5867 8.70662 21.84 8.73329 22 8.86662C22.1333 8.97329 22.1733 9.11996 22.1867 9.22663C22.1733 9.30663 22.2 9.54663 22.1867 9.73329Z" fill="#CCCCCC"/>
</svg>
